{"title":"Nobody.Wants.The.Night.2015.ORIGINAL.1080p.BRRip.x264.HORiZON-Ar","uid":14281197,"size":2060803154,"categoryP":"video","categoryS":"movies","magnet":"?xt=urn:btih:59bdf01dc9da35427d709902d62a2f1c487eaa9f&amp;dn=Nobody.Wants.The.Night.2015.ORIGINAL.1080p.BRRip.x264.HORiZON-Ar&amp;tr=udp%3A%2F%2Ftracker.leechers-paradise.org%3A6969&amp;tr=udp%3A%2F%2Fzer0day.ch%3A1337&amp;tr=udp%3A%2F%2Fopen.demonii.com%3A1337&amp;tr=udp%3A%2F%2Ftracker.coppersurfer.tk%3A6969&amp;tr=udp%3A%2F%2Fexodus.desync.com%3A6969","seeders":3,"leechers":3,"uploader":"noriegaRJ","files":1,"time":1460359900,"description":"Title: Nadie Quiere La Noche aka Nobody Wants The Night\r\n\r\nRelease: Nobody.Wants.The.Night.2015.ORIGINAL.1080p.BRRip.x264.AC3.HORiZON-ArtSubs\r\n\r\n\r\nIMDB Link:                                                                \nhttp://www.imdb.com/title/tt2735996/\r\n\r\n\r\nPlot: Josephine (Binoche) travels to the hostile icy landscape of the remote North in search of her explorer husband. As winter descends and determined not to turn back she finds companionship with an Inuit woman (Kikuchi). With the elements against them and their survival reliant on each other it becomes clear they are waiting for a man they both love.\r\n\r\n\r\nSPANISH SUBTITLE INSIDE MKV FILE.\r\n\r\n\r\nGeneral\r\nComplete name                            : Nobody.Wants.the.Night.2015.1080p.BRRip.x264.HORiZON-Artsubs\r\nFormat                                   : Matroska\r\nFormat version                           : Version 2\r\nFile size                                : 1.92 GiB\r\nDuration                                 : 1h 43mn\r\nOverall bit rate                         : 2 660 Kbps\r\nWriting application                      : HandBrake 0.9.5\r\nWriting library                          : libmkv 0.6.4.1\r\n\r\nVideo\r\nID                                       : 1\r\nFormat                                   : AVC\r\nFormat/Info                              : Advanced Video Codec\r\nFormat profile                           :   \r\nFormat settings, CABAC                   : Yes\r\nFormat settings, ReFrames                : 4 frames\r\nCodec ID                                 : V_MPEG4/ISO/AVC\r\nDuration                                 : 1h 43mn\r\nBit rate                                 : 1 996 Kbps\r\nWidth                                    : 1 920 pixels\r\nHeight                                   : 848 pixels\r\nDisplay aspect ratio                     : 2.25:1\r\nOriginal display aspect ratio            : 2.25:1\r\nFrame rate mode                          : Constant\r\nFrame rate                               : 24.000 fps\r\nColor space                              : YUV\r\nChroma subsampling                       : 4:2:0\r\nBit depth                                : 8 bits\r\nScan type                                : Progressive\r\nBits/(Pixel*Frame)                       : 0.051\r\nStream size                              : 1.42 GiB (74%)\r\nWriting library                          : x264 core 112\r\nLanguage                                 : English\r\nDefault                                  : Yes\r\nForced                                   : No\r\nColor primaries                          : BT.709\r\nTransfer characteristics                 : BT.709\r\nMatrix coefficients                      : BT.709\r\n\r\nAudio\r\nID                                       : 2\r\nFormat                                   : AC-3\r\nFormat/Info                              : Audio Coding 3\r\nMode extension                           : CM (complete main)\r\nFormat settings, Endianness              : Big\r\nCodec ID                                 : A_AC3\r\nDuration                                 : 1h 43mn\r\nBit rate mode                            : Constant\r\nBit rate                                 : 640 Kbps\r\nChannel count                            : 6 channels\r\nChannel positions                        : Front: L C R, Side: L R, LFE\r\nSampling rate                            : 48.0 KHz\r\nBit depth                                : 16 bits\r\nCompression mode                         : Lossy\r\nStream size                              : 473 MiB (24%)\r\nLanguage                                 : English\r\nDefault                                  : Yes\r\nForced                                   : No\r\n\r\nText\r\nID                                       : 3\r\nFormat                                   : UTF-8\r\nCodec ID                                 : S_TEXT/UTF8\r\nCodec ID/Info                            : UTF-8 Plain Text\r\nLanguage                                 : Spanish\r\nDefault                                  : No\r\nForced                                   : No\r\n\r\n\r\n\r\nThanks to those helping me seed. Leechers remember, the community depends on you. If nobody shares, the freebies go away. Remember, the only reason you can download this free movie is because others are generous enough to keep sharing it with you. If nobody shares, everybody loses, so even if its for an extra hour or two after you get it, remember, others want to see it too, and they can't without you.\r\n\r\n\r\nSEE MY OTHERS UPLOADS:                                                                                        \nhttp://thepiratebay.se/user/noriegaRJ\r\n\r\nAND SEE THIS ANOTHERS UPLOADS FROM &quot;HORiZON-ArtSubs&quot;:                                        \nhttp://thepiratebay.se/user/artsubs                                        \nhttp://thepiratebay.se/user/lletaif","torrent":{"xt":"urn:btih:59bdf01dc9da35427d709902d62a2f1c487eaa9f","amp;dn":"Nobody.Wants.The.Night.2015.ORIGINAL.1080p.BRRip.x264.HORiZON-Ar","amp;tr":["udp%3A%2F%2Ftracker.leechers-paradise.org%3A6969","udp%3A%2F%2Fzer0day.ch%3A1337","udp%3A%2F%2Fopen.demonii.com%3A1337","udp%3A%2F%2Ftracker.coppersurfer.tk%3A6969","udp%3A%2F%2Fexodus.desync.com%3A6969"],"infoHash":"59bdf01dc9da35427d709902d62a2f1c487eaa9f","infoHashBuffer":{"type":"Buffer","data":[89,189,240,29,201,218,53,66,125,112,153,2,214,42,47,28,72,126,170,159]},"announce":[],"urlList":[]}}